<svg width="30" height="34" viewBox="0 0 30 34" fill="none" xmlns="http://www.w3.org/2000/svg">
<path d="M28.3333 33.6666H5.83333C4.28624 33.6666 2.80251 33.052 1.70854 31.958C0.614582 30.8641 0 29.3803 0 27.8333V5.33325C0 4.00717 0.526784 2.7354 1.46447 1.79772C2.40215 0.860036 3.67392 0.333252 5 0.333252H28.3333C28.7754 0.333252 29.1993 0.508847 29.5118 0.821407C29.8244 1.13397 30 1.55789 30 1.99992V31.9999C30 32.4419 29.8244 32.8659 29.5118 33.1784C29.1993 33.491 28.7754 33.6666 28.3333 33.6666ZM26.6667 30.3333V25.3333H5.83333C5.17029 25.3333 4.53441 25.5966 4.06557 26.0655C3.59673 26.5343 3.33333 27.1702 3.33333 27.8333C3.33333 28.4963 3.59673 29.1322 4.06557 29.601C4.53441 30.0699 5.17029 30.3333 5.83333 30.3333H26.6667Z" fill="white"/>
</svg>
