<svg width="38" height="41" viewBox="0 0 38 41" fill="none" xmlns="http://www.w3.org/2000/svg">
<path d="M33.763 22.5073C33.845 21.8667 33.886 21.2047 33.886 20.5C33.886 19.8167 33.845 19.1333 33.7425 18.4927L37.902 15.1187C38.2708 14.8198 38.3732 14.2432 38.1478 13.8161L34.2138 6.72656C33.9679 6.25677 33.4557 6.10729 33.0049 6.25677L28.1078 8.30677C27.0834 7.49531 25.9974 6.81198 24.7885 6.29948L24.0509 0.87552C23.9689 0.36302 23.5591 0 23.0674 0H15.1993C14.7075 0 14.3182 0.36302 14.2363 0.87552L13.4987 6.29948C12.2898 6.81198 11.1833 7.51667 10.1793 8.30677L5.28226 6.25677C4.83148 6.08594 4.31924 6.25677 4.07336 6.72656L0.159821 13.8161C-0.0860563 14.2646 -0.00409747 14.8198 0.405698 15.1187L4.56512 18.4927C4.46267 19.1333 4.38071 19.838 4.38071 20.5C4.38071 21.162 4.42169 21.8667 4.52414 22.5073L0.364718 25.8812C-0.00409744 26.1802 -0.106546 26.7568 0.118841 27.1839L4.05287 34.2734C4.29875 34.7432 4.811 34.8927 5.26177 34.7432L10.1588 32.6932C11.1833 33.5047 12.2693 34.188 13.4782 34.7005L14.2158 40.1245C14.3182 40.637 14.7075 41 15.1993 41H23.0674C23.5591 41 23.9689 40.637 24.0304 40.1245L24.768 34.7005C25.9769 34.188 27.0834 33.5047 28.0874 32.6932L32.9844 34.7432C33.4352 34.9141 33.9474 34.7432 34.1933 34.2734L38.1273 27.1839C38.3732 26.7141 38.2708 26.1802 37.8815 25.8812L33.763 22.5073ZM19.1333 28.1875C15.0764 28.1875 11.757 24.7281 11.757 20.5C11.757 16.2719 15.0764 12.8125 19.1333 12.8125C23.1903 12.8125 26.5096 16.2719 26.5096 20.5C26.5096 24.7281 23.1903 28.1875 19.1333 28.1875Z" fill="#FFCB69"/>
</svg>
