<svg width="35" height="31" viewBox="0 0 35 31" fill="none" xmlns="http://www.w3.org/2000/svg">
<path d="M17.4683 3.12789C13.7134 -0.233373 9.50421 -0.704676 6.09375 0.854435C2.496 2.50056 0 6.32256 0 10.7296C0 15.0618 1.80375 18.3671 4.17137 21.0304C6.06775 23.1655 8.39052 24.9543 10.4402 26.5327C10.9021 26.8885 11.3502 27.2335 11.7764 27.5694C12.61 28.2259 13.5037 28.9247 14.4089 29.4544C15.314 29.9826 16.3475 30.4132 17.4688 30.4132C18.59 30.4132 19.6235 29.9826 20.5286 29.4544C21.4354 28.9247 22.3275 28.2259 23.1611 27.5694C23.5931 27.2287 24.0475 26.8787 24.516 26.5178C26.5611 24.9428 28.8755 23.1603 30.7661 21.0304C33.1338 18.3654 34.9375 15.0618 34.9375 10.7296C34.9375 6.32256 32.4431 2.50056 28.8438 0.854435C25.4328 -0.704876 21.2258 -0.233252 17.4683 3.12789ZM13.287 25.656L13.2876 25.6552H13.286C12.8139 25.2831 12.3334 24.9126 11.85 24.5399C9.81092 22.9678 7.72038 21.3561 5.993 19.4119C3.9 17.0524 2.4375 14.2997 2.4375 10.7296C2.4375 7.23581 4.41188 4.30431 7.10775 3.07094C9.72725 1.87331 13.247 2.19019 16.5912 5.66444C16.7049 5.78239 16.8412 5.87621 16.992 5.94029C17.1428 6.00438 17.3049 6.0374 17.4688 6.0374C17.6326 6.0374 17.7947 6.00438 17.9455 5.94029C18.0963 5.87621 18.2326 5.78239 18.3463 5.66444C21.6905 2.19181 25.2102 1.87331 27.8298 3.07094C30.5256 4.30431 32.5 7.23419 32.5 10.7296C32.5 14.2997 31.0375 17.0524 28.9445 19.4119C27.2171 21.3561 25.1266 22.9678 23.0875 24.5399C22.6041 24.9126 22.1236 25.2831 21.6515 25.6552C20.7968 26.3296 20.0346 26.9211 19.2985 27.3501C18.564 27.7791 17.9725 27.9757 17.4688 27.9757C16.965 27.9757 16.3735 27.7807 15.639 27.3501C14.9032 26.9212 14.1413 26.33 13.287 25.656Z" fill="#FFCB69"/>
<path d="M17.4683 3.12789C13.7134 -0.233373 9.50421 -0.704676 6.09375 0.854435C2.496 2.50056 0 6.32256 0 10.7296C0 15.0618 1.80375 18.3671 4.17137 21.0304C6.06775 23.1655 8.39052 24.9543 10.4402 26.5327C10.9021 26.8885 11.3502 27.2335 11.7764 27.5694C12.61 28.2259 13.5037 28.9247 14.4089 29.4544C15.314 29.9826 16.3475 30.4132 17.4688 30.4132C18.59 30.4132 19.6235 29.9826 20.5286 29.4544C21.4354 28.9247 22.3275 28.2259 23.1611 27.5694C23.5931 27.2287 24.0475 26.8787 24.516 26.5178C26.5611 24.9428 28.8755 23.1603 30.7661 21.0304C33.1338 18.3654 34.9375 15.0618 34.9375 10.7296C34.9375 6.32256 32.4431 2.50056 28.8438 0.854435C25.4328 -0.704876 21.2258 -0.233252 17.4683 3.12789ZM13.287 25.656L13.2876 25.6552H13.286C12.8139 25.2831 12.3334 24.9126 11.85 24.5399C9.81092 22.9678 7.72038 21.3561 5.993 19.4119C3.9 17.0524 2.4375 14.2997 2.4375 10.7296C2.4375 7.23581 4.41188 4.30431 7.10775 3.07094C9.72725 1.87331 13.247 2.19019 16.5912 5.66444C16.7049 5.78239 16.8412 5.87621 16.992 5.94029C17.1428 6.00438 17.3049 6.0374 17.4688 6.0374C17.6326 6.0374 17.7947 6.00438 17.9455 5.94029C18.0963 5.87621 18.2326 5.78239 18.3463 5.66444C21.6905 2.19181 25.2102 1.87331 27.8298 3.07094C30.5256 4.30431 32.5 7.23419 32.5 10.7296C32.5 14.2997 31.0375 17.0524 28.9445 19.4119C27.2171 21.3561 25.1266 22.9678 23.0875 24.5399C22.6041 24.9126 22.1236 25.2831 21.6515 25.6552C20.7968 26.3296 20.0346 26.9211 19.2985 27.3501C18.564 27.7791 17.9725 27.9757 17.4688 27.9757C16.965 27.9757 16.3735 27.7807 15.639 27.3501C14.9032 26.9212 14.1413 26.33 13.287 25.656Z" stroke="#FFCB69"/>
<path d="M10.7157 4.67074C11.1155 4.83778 11.2881 5.16296 11.5443 5.48429C11.7128 5.53953 11.8844 5.58057 12.0636 5.58057C12.2773 5.58057 12.3583 5.55227 12.4784 5.72499C12.6182 5.92601 12.8195 6.16698 12.8893 6.39653C12.9086 6.46014 12.9249 6.52936 12.9425 6.60004C13.0023 6.83913 13.0779 7.09475 13.3424 7.20527C13.587 7.30746 13.8122 7.46547 14.0682 7.55909C14.4945 7.71495 15.0318 7.75815 15.4814 7.8046C17.3902 8.0018 19.2803 7.85515 21.188 7.85515C22.2556 7.85515 23.2419 7.40023 24.3025 7.40023C25.327 7.40023 25.7502 8.69051 25.7502 9.50873C25.7502 10.1141 25.8604 10.7166 25.8155 11.3284C25.7793 11.8215 25.6926 12.3137 25.6811 12.8087C25.6698 13.2966 25.5855 14.1158 25.2665 14.6828C25.6929 14.8841 26.0631 15.1624 26.3954 15.567C27.0496 16.3635 27.268 17.5609 26.6181 18.4337C25.9337 19.353 24.622 19.8058 23.5306 20.1017C23.2747 20.1711 23.0162 20.2334 22.7556 20.2892C22.574 20.7085 22.3975 21.1454 22.0521 21.4701C21.5247 21.966 21.3636 22.7202 20.6312 22.9612C19.8016 23.2342 19.0113 23.4643 18.3539 24.066C17.7712 24.5994 17.4169 25.3406 16.526 25.0769C15.7205 24.8385 14.9187 24.5836 14.099 24.3909C13.5359 24.2586 13.1055 24.0076 12.6166 23.7122C10.7884 22.6072 9.78628 20.6775 8.05827 19.4591C7.21478 18.8643 6.58478 18.0131 6.04599 17.1773C5.51908 16.3599 4.87823 15.5122 4.5291 14.6139C4.30607 14.04 3.91193 13.5166 3.68425 12.9386C3.40785 12.237 3.21057 11.5316 2.97764 10.8121C2.87007 10.4798 2.8701 10.01 2.87012 9.65711V9.64231C2.87012 9.09891 3.0166 8.67079 3.38855 8.24508C4.21649 7.29746 5.4575 6.4904 6.82556 6.4904C7.13457 6.4904 7.45921 6.51569 7.69345 6.73591C8.01408 7.03736 7.66109 7.61961 7.44768 7.85515C7.02364 8.32315 6.42814 8.40405 5.92694 8.76498C5.2279 9.26838 5.1282 10.1886 5.29715 10.9601C5.61053 12.3912 6.49203 13.6818 6.87548 15.1013C7.0962 15.9184 7.10368 16.9455 7.53216 17.6936C7.65631 17.9104 7.80318 17.5719 7.87778 17.4517C8.24911 16.8532 8.54457 16.2556 8.78792 15.6031C9.34955 14.0973 9.54719 12.6441 9.74414 11.0757C9.81264 10.5301 9.89888 10.026 9.7787 9.47985C9.68277 9.04393 9.60162 8.60579 9.65965 8.15843C9.70051 7.84343 10.3 7.22339 9.96687 7.03197C9.22408 6.6052 8.31142 6.27728 7.49376 5.98494C7.026 5.81771 6.65692 5.71055 6.1612 5.71055C5.97687 5.71055 5.83405 5.74899 5.7057 5.80635C5.70518 5.80691 5.70469 5.80747 5.70421 5.80803C5.63093 5.89415 5.26131 6.09717 5.15506 6.12214C5.14919 6.12352 5.14404 6.12409 5.13956 6.1239C5.01666 6.11872 5.39657 5.54487 5.46612 5.47948C5.59312 5.36008 5.73162 5.07586 5.88086 4.99568C6.10498 4.87528 6.0392 4.80072 6.35705 4.80072H7.25951C7.6122 4.80072 7.9761 4.8112 8.34338 4.83482C8.54627 4.73923 8.74898 4.63928 8.95305 4.59131C9.45228 4.47398 10.2381 4.47118 10.7157 4.67074Z" fill="#FFCB69"/>
<path d="M27.5475 15.9786C29.2822 15.089 30.8209 13.1684 30.4353 11.2201C30.2149 10.1065 29.8986 9.05102 29.5521 7.97068C29.2487 7.02502 29.0456 5.84742 28.3731 5.05706C27.3094 3.80695 25.23 4.02087 23.7303 4.02087C23.0749 4.02087 22.3404 4.07208 21.741 4.3458C21.0087 4.68022 20.7439 5.37601 20.2856 5.94162C19.7241 6.63444 19.0338 7.10897 18.0774 7.20888C17.573 7.26158 17.0627 7.32542 16.5567 7.21971C15.6108 7.02209 14.6063 7.11473 13.6535 6.86589C12.8685 6.66087 12.1767 6.19801 11.6527 5.61307C11.3303 5.25309 11.1691 4.8602 10.7157 4.67074C10.2381 4.47118 9.45228 4.47398 8.95305 4.59131C8.51917 4.69329 8.09145 5.03028 7.65505 5.06067C7.1803 5.09373 6.82728 5.47817 6.39161 5.58057C6.27202 5.60868 5.77382 5.72623 5.70421 5.80803C5.63093 5.89415 5.26131 6.09717 5.15506 6.12214C4.98852 6.16128 5.39403 5.54726 5.46612 5.47948C5.59312 5.36008 5.73162 5.07586 5.88086 4.99568C6.10498 4.87528 6.0392 4.80072 6.35705 4.80072C6.65787 4.80072 6.95869 4.80072 7.25951 4.80072C8.46037 4.80072 9.79126 4.92224 10.9423 5.27008C11.3109 5.38147 11.669 5.58057 12.0636 5.58057C12.2773 5.58057 12.3583 5.55227 12.4784 5.72499C12.6182 5.92601 12.8195 6.16698 12.8893 6.39653C12.974 6.67533 12.9998 7.06208 13.3424 7.20527C13.587 7.30746 13.8122 7.46547 14.0682 7.55909C14.4945 7.71495 15.0318 7.75815 15.4814 7.8046C17.3902 8.0018 19.2803 7.85515 21.188 7.85515C22.2556 7.85515 23.2419 7.40023 24.3025 7.40023C25.327 7.40023 25.7502 8.69051 25.7502 9.50873C25.7502 10.1141 25.8604 10.7166 25.8155 11.3284C25.7793 11.8215 25.6925 12.3137 25.6811 12.8087C25.6646 13.5217 25.4922 14.9418 24.6596 15.2493C24.3201 15.3747 23.9458 13.2657 23.8685 12.9964C23.6592 12.2674 23.4793 11.5381 23.231 10.8193C23.0776 10.3751 22.9828 9.84194 22.6396 9.48346C21.9234 8.73521 20.33 8.6035 19.3524 8.57724C17.8878 8.5379 16.4309 8.64575 14.9899 8.89495C14.0743 9.0533 13.1002 9.32801 12.4285 9.97086C11.3048 11.0462 11.0687 12.3089 11.0997 13.769C11.1234 14.8801 11.3341 15.7936 12.4937 16.2891C13.9105 16.8946 15.7292 16.3361 16.9791 15.6392C18.632 14.7178 19.5971 13.0894 19.7748 11.3139C19.8217 10.8456 19.7862 10.1216 19.3716 9.78312C18.7845 9.30377 17.7771 9.12328 17.0406 9.06826C15.4402 8.94868 13.5875 9.3008 12.1328 9.92393C11.275 10.2914 9.78648 11.1381 10.251 12.2454C10.8077 13.5723 12.7825 13.8275 14.0606 13.8737C16.5383 13.9633 19.1479 13.7898 21.5029 13.0181C21.9782 12.8623 22.9161 12.6279 22.9161 12.018C22.9161 11.7009 22.4302 11.5732 22.1711 11.4945C20.5996 11.0167 18.8236 10.8488 17.1827 10.8735C15.5391 10.8982 13.6822 11.1634 12.5014 12.3538C11.7411 13.1202 11.4507 14.3754 11.5606 15.3974C11.6613 16.3338 12.4926 16.6554 13.4116 16.5996C14.7902 16.516 16.4281 15.9137 17.5782 15.206C18.3816 14.7116 19.146 14.0206 19.3409 13.1047C19.3998 12.828 19.4768 12.3955 19.1066 12.2888C17.9917 11.9672 16.6159 12.3162 15.5928 12.7292C14.0721 13.3431 12.5375 14.5264 12.0022 16.0508C11.5856 17.2373 11.7316 18.5543 12.7702 19.4122C14.3634 20.728 16.6364 20.7822 18.6381 20.73C20.2743 20.6873 21.9527 20.5296 23.5306 20.1017C24.622 19.8058 25.9337 19.353 26.6181 18.4337C27.268 17.5609 27.0496 16.3635 26.3954 15.567C25.8143 14.8595 25.1174 14.5381 24.2065 14.3395C21.6207 13.7757 18.3796 13.9643 16.6719 16.1736C16.1558 16.8412 16.2276 18.1078 17.3632 17.69C18.1412 17.4038 18.9039 16.936 19.5713 16.4696C20.0058 16.166 20.3002 15.7868 20.3547 15.2746C20.4235 14.6276 19.4193 15.4255 19.291 15.5995C18.913 16.1119 18.6444 16.8441 18.8148 17.4734C18.9799 18.0831 19.757 18.024 20.2817 17.9752C21.3846 17.8725 22.4554 17.3912 23.3078 16.7368C23.3625 16.6949 24.0891 16.1216 23.93 15.9534C23.7183 15.7295 22.6654 16.0423 22.4323 16.1375C21.8352 16.3812 21.2934 16.9009 21.2034 17.5239C21.1229 18.081 21.4245 18.2874 21.6719 18.7731C21.8752 19.1722 21.6868 19.5993 22.2403 19.5385C22.392 19.5218 22.8827 19.3183 23.0121 19.3724C23.1986 19.4504 22.8308 20.1174 22.7932 20.2028C22.5976 20.6478 22.4213 21.123 22.0521 21.4701C21.5247 21.966 21.3636 22.7202 20.6312 22.9612C19.8016 23.2342 19.0113 23.4643 18.3539 24.066C17.7712 24.5994 17.4169 25.3406 16.526 25.0769C15.7205 24.8385 14.9187 24.5836 14.099 24.3909C13.5359 24.2586 13.1055 24.0076 12.6166 23.7122C10.7884 22.6072 9.78628 20.6775 8.05827 19.4591C7.21478 18.8643 6.58478 18.0131 6.04599 17.1773C5.51908 16.3599 4.87823 15.5122 4.5291 14.6139C4.30607 14.04 3.91193 13.5166 3.68425 12.9386C3.40785 12.237 3.21057 11.5316 2.97764 10.8121C2.86856 10.4751 2.87012 9.99681 2.87012 9.64231C2.87012 9.09891 3.0166 8.67079 3.38855 8.24508C4.21649 7.29746 5.4575 6.4904 6.82556 6.4904C7.13457 6.4904 7.45921 6.51569 7.69345 6.73591C8.01408 7.03736 7.66109 7.61961 7.44768 7.85515C7.02364 8.32315 6.42814 8.40405 5.92694 8.76498C5.2279 9.26838 5.1282 10.1886 5.29715 10.9601C5.61053 12.3912 6.49203 13.6818 6.87548 15.1013C7.0962 15.9184 7.10368 16.9455 7.53216 17.6936C7.65631 17.9104 7.80318 17.5719 7.87778 17.4517C8.24911 16.8532 8.54457 16.2556 8.78792 15.6031C9.34955 14.0973 9.54719 12.6441 9.74414 11.0757C9.81264 10.5301 9.89888 10.026 9.7787 9.47985C9.68277 9.04393 9.60162 8.60579 9.65965 8.15843C9.70051 7.84343 10.3 7.22339 9.96687 7.03197C9.22408 6.6052 8.31142 6.27728 7.49376 5.98494C7.026 5.81771 6.65692 5.71055 6.1612 5.71055C5.66498 5.71055 5.46952 5.98914 5.04753 6.16546C4.88079 6.23514 4.74586 6.23045 4.56366 6.23045C4.29117 6.23045 4.39085 6.55241 4.39085 6.75036" stroke="#FFCB69" stroke-width="3" stroke-linecap="round"/>
<path d="M15.0258 27.0092C15.2444 27.0092 15.5599 27.1768 15.7642 27.2628C15.8991 27.3196 16.1223 27.2778 16.2678 27.2778C16.4198 27.2778 16.6347 27.1745 16.7713 27.1062C17.0325 26.9756 17.3158 26.9166 17.5769 26.7929C18.5278 26.3425 19.6554 26.072 20.4301 25.2973C20.7224 25.005 21.0119 24.6833 21.3364 24.4283C21.5522 24.2588 21.7063 24.0083 21.9257 23.8539C22.5397 23.4219 23.1453 22.9839 23.7533 22.5447C24.4931 22.0105 25.2433 21.4556 25.9016 20.8328C26.5137 20.2538 27.0555 19.6118 27.6471 19.0202C28.4564 18.2109 29.4598 17.3108 29.4598 16.0662C29.4598 15.4408 29.1309 15.077 28.5758 14.7832C25.79 13.3084 22.9652 11.9478 20.2958 10.259C19.0708 9.484 17.9398 8.72196 16.8235 7.80862C16.234 7.3263 15.5759 6.77281 14.9213 6.39879C14.7067 6.27616 14.6109 5.96078 14.388 5.86171C14.1603 5.76052 13.9455 5.56031 13.7129 5.44398C13.5644 5.36972 13.4059 5.24691 13.2504 5.19036C13.1054 5.13762 12.8675 5.07187 12.7432 4.98895" stroke="#FFCB69" stroke-width="3" stroke-linecap="round"/>
<path d="M27.3863 11.6C27.5082 10.3806 27.6808 9.13185 27.4623 7.92797C26.9822 8.72684 26.4673 9.49246 25.7777 10.182C25.7563 10.2034 25.7347 10.2245 25.713 10.2453C25.7581 10.4946 25.7777 10.751 25.7777 11.0115C25.7777 12.46 25.7732 13.8249 24.3093 14.5425C22.5976 15.3816 20.5948 15.6373 18.6521 15.5308C18.5385 15.7381 18.4439 15.9527 18.3739 16.1735C18.1703 16.8155 18.3466 17.0226 18.8804 17.1501C18.9189 17.1475 18.9575 17.1451 18.996 17.1431C20.4492 17.0666 21.8618 16.6312 23.2668 16.28C24.0609 16.0814 24.9295 15.7103 25.7441 15.641C26.1414 15.6072 28.3447 15.599 27.7954 16.2856C27.6767 16.4339 27.2583 16.5071 27.1004 16.5602C26.4241 16.7874 25.7315 16.9347 25.0267 17.0422C23.1664 17.326 21.1252 17.5238 19.2538 17.2215C19.1144 17.199 18.9899 17.1762 18.8804 17.1501C18.0992 17.2034 17.2977 17.3737 16.5187 17.3449C16.3349 17.338 16.0698 17.1516 15.8854 17.087C15.2032 16.8483 14.4288 16.6958 13.7724 16.4145C13.4438 16.2736 13.0645 16.0724 12.8644 16.4593C12.5227 17.12 13.639 17.9805 14.0975 18.3537C15.1131 19.1803 15.8839 20.2465 16.7989 21.1785C17.1362 21.522 17.3973 21.7682 17.5836 22.1873C17.9048 22.91 16.0833 21.8368 16.0143 21.8062C14.9397 21.3306 13.7653 20.9001 12.786 20.2705C11.7027 19.5742 10.4707 19.1338 9.78743 17.995C9.37404 17.306 9.25435 16.4014 9.07563 15.6354C8.87698 14.7841 8.4874 13.9771 8.17887 13.1637C7.61876 11.6871 6.88297 10.1052 7.94347 8.61269C8.68236 7.57277 9.7372 7.41537 10.867 7.43564C10.9168 7.19418 10.9776 6.95801 11.0485 6.7295C11.5078 5.24962 12.1506 4.29102 13.6715 5.03687C13.8395 5.11924 14.0023 5.20443 14.1609 5.29249C14.0803 5.07924 14.0015 4.86373 13.9686 4.63333C13.9648 4.6069 13.9598 4.5809 13.9538 4.55532C13.6211 4.42108 13.2461 4.39593 12.898 4.33068C12.292 4.21704 11.711 3.92554 11.1045 3.84867C9.68424 3.66863 5.38212 3.80944 6.81132 3.72537C7.1237 3.70699 7.57916 3.36522 7.87621 3.22094C8.70825 2.81681 9.28758 2.64856 10.1854 2.8118C10.5282 2.87413 10.8646 2.93908 11.1998 3.01357C11.5597 3.09354 11.9153 3.34645 12.3039 3.41711C12.9412 3.53298 13.8009 3.90684 13.9538 4.55532C13.9795 4.56571 14.005 4.57674 14.0302 4.58849C14.7729 4.9351 15.5684 5.21332 16.3394 5.49085C17.5819 5.93817 18.4155 7.0198 18.9732 8.20005C19.4365 7.90193 19.9184 7.65494 20.386 7.48053C22.0166 6.87228 24.1795 7.58124 25.1948 8.99381C25.4711 9.37818 25.6326 9.80062 25.713 10.2453C25.7347 10.2245 25.7563 10.2034 25.7777 10.182C26.4673 9.49246 26.9822 8.72684 27.4623 7.92797C27.7182 7.50214 27.9641 7.06686 28.2214 6.62861C28.5183 6.12275 28.7797 5.59911 29.0565 5.08171C29.0981 5.00381 29.4702 4.16459 29.5049 4.28584C29.6263 4.71082 29.7297 5.13829 29.8168 5.56778C30.1806 5.98111 30.4349 7.03052 30.5193 7.45251C30.6961 8.33668 31.0555 9.19546 31.2031 10.0811C31.3386 10.894 31.2593 11.807 31.0013 12.5808C30.9568 12.7144 30.8748 12.8303 30.7705 12.9319C30.7583 13.2207 30.7274 13.5023 30.6706 13.7634C30.5261 14.4284 30.1414 14.9485 29.914 15.5738C29.8419 15.772 29.6687 15.9044 29.5889 16.1118C29.4255 16.5368 29.7331 14.9104 29.7571 14.7555C29.8259 14.3111 29.889 13.865 29.9446 13.418C29.9028 13.4356 29.8622 13.4525 29.8231 13.4688L29.8019 13.4776C29.3221 13.6771 27.861 14.2541 27.3526 13.8587C27.2319 13.7648 27.291 13.4389 27.291 13.3094C27.291 12.723 27.3284 12.1785 27.3863 11.6Z" fill="#FFCB69"/>
<path d="M20.0273 4.53245C20.6727 4.86 21.2082 5.20434 21.9217 5.33953C22.718 5.49041 23.5243 5.62164 24.3149 5.79911C25.0333 5.96039 25.7425 6.16619 26.4615 6.32596C26.6655 6.3713 26.9872 6.50379 27.0836 6.71268C27.8047 8.27508 27.5499 9.96402 27.3863 11.6C27.3284 12.1785 27.291 12.723 27.291 13.3094C27.291 13.4389 27.2319 13.7648 27.3526 13.8587C27.861 14.2541 29.3221 13.6771 29.8019 13.4776C30.2234 13.3023 30.8446 13.051 31.0013 12.5808C31.2593 11.807 31.3386 10.894 31.2031 10.0811C31.0555 9.19546 30.6961 8.33668 30.5193 7.45251C30.4238 6.97492 30.1106 5.69367 29.6674 5.44041C29.5705 5.38506 29.6113 5.49625 29.6226 5.59174C29.7167 6.39158 29.9376 7.18446 30.0933 7.97375C30.3055 9.04893 30.528 10.0902 30.6706 11.174C30.7757 11.9729 30.8443 12.9645 30.6706 13.7634C30.5261 14.4284 30.1414 14.9485 29.914 15.5738C29.8419 15.772 29.6687 15.9044 29.5889 16.1118C29.4255 16.5368 29.7331 14.9104 29.7571 14.7555C30.296 11.2769 30.4805 7.70059 29.5049 4.28584C29.4702 4.16459 29.0981 5.00381 29.0565 5.08171C28.7797 5.59911 28.5183 6.12275 28.2214 6.62861C27.4816 7.889 26.8348 9.1249 25.7777 10.182C25.0063 10.9534 24.0435 11.2955 23.0762 11.7457C22.0255 12.2349 21.1668 12.9674 20.2739 13.6906C19.4886 14.3265 18.6861 15.1887 18.3739 16.1735C18.1285 16.9473 18.4349 17.0893 19.2538 17.2215C21.1252 17.5238 23.1664 17.326 25.0267 17.0422C25.7315 16.9347 26.4241 16.7874 27.1004 16.5602C27.2583 16.5071 27.6767 16.4339 27.7954 16.2856C28.3447 15.599 26.1414 15.6072 25.7441 15.641C24.9295 15.7103 24.0609 16.0814 23.2668 16.28C21.8618 16.6312 20.4492 17.0666 18.996 17.1431C18.1785 17.1861 17.3361 17.3751 16.5187 17.3449C16.3349 17.338 16.0698 17.1516 15.8854 17.087C15.2032 16.8483 14.4288 16.6958 13.7724 16.4145C13.4438 16.2736 13.0645 16.0724 12.8644 16.4593C12.5227 17.12 13.639 17.9805 14.0975 18.3537C15.1131 19.1803 15.8839 20.2465 16.7989 21.1785C17.1362 21.522 17.3973 21.7682 17.5836 22.1873C17.9048 22.91 16.0833 21.8368 16.0143 21.8062C14.9397 21.3306 13.7653 20.9001 12.786 20.2705C11.7027 19.5742 10.4707 19.1338 9.78743 17.995C9.37404 17.306 9.25435 16.4014 9.07563 15.6354C8.87698 14.7841 8.4874 13.9771 8.17887 13.1637C7.61876 11.6871 6.88297 10.1052 7.94347 8.61269C8.80874 7.39491 10.1073 7.38734 11.452 7.45811C12.028 7.48843 13.7934 7.8429 13.9798 7.00413C14.0525 6.67659 14.4253 6.32962 14.3721 5.98407C14.3011 5.52291 14.0366 5.11001 13.9686 4.63333C13.869 3.93674 12.9664 3.53755 12.3039 3.41711C11.9153 3.34645 11.5597 3.09354 11.1998 3.01357C10.8646 2.93908 10.5282 2.87413 10.1854 2.8118C9.28758 2.64856 8.70825 2.81681 7.87621 3.22094C7.57916 3.36522 7.1237 3.70699 6.81132 3.72537C5.38212 3.80944 9.68424 3.66863 11.1045 3.84867C11.711 3.92554 12.292 4.21704 12.898 4.33068C13.273 4.40098 13.6793 4.42472 14.0302 4.58849C14.7729 4.9351 15.5684 5.21332 16.3394 5.49085C17.6595 5.96609 18.5179 7.15733 19.0745 8.42213C19.1854 8.67432 19.6778 10.1031 19.6349 10.0699C18.4811 9.17568 17.6277 7.9101 16.5075 6.9649C15.6 6.19923 14.7403 5.56099 13.6715 5.03687C12.1506 4.29102 11.5078 5.24962 11.0485 6.7295C10.4208 8.75205 10.5858 11.3752 12.147 12.9507C13.344 14.1587 14.7558 14.9316 16.429 15.2543C18.9896 15.7481 21.9305 15.7085 24.3093 14.5425C25.7732 13.8249 25.7777 12.46 25.7777 11.0115C25.7777 10.2864 25.626 9.59374 25.1948 8.99381C24.1795 7.58124 22.0166 6.87228 20.386 7.48053C19.0407 7.98232 17.5771 9.085 16.7765 10.2773C16.447 10.768 15.9919 11.4786 15.9919 12.0988" stroke="#FFCB69" stroke-width="3" stroke-linecap="round"/>
<path d="M16.1744 22.1594C15.9241 22.4283 15.6973 22.6319 15.414 22.7407C15.4246 22.6893 15.4363 22.6378 15.4491 22.5863C15.7773 21.2735 16.5726 20.324 17.5855 19.5022C17.8637 18.8618 18.1392 18.2148 18.4696 17.6011C18.5585 17.4361 18.8624 18.0054 18.8759 18.09C18.9497 18.5554 18.2521 18.9917 17.9486 19.2193C17.8249 19.3121 17.7037 19.4063 17.5855 19.5022C17.5316 19.6263 17.4775 19.7501 17.423 19.8734C17.0866 20.634 16.7519 21.5391 16.1744 22.1594Z" fill="#FFCB69"/>
<path d="M13.0346 21.5902C13.1343 21.6235 13.196 21.9204 13.2457 22.0057C13.3669 22.2134 13.5094 22.372 13.6864 22.5313C13.7719 22.6082 13.9415 22.6798 14.049 22.7241C14.2995 22.8272 14.6378 22.8296 14.9029 22.8296C15.4632 22.8296 15.7912 22.571 16.1744 22.1594C16.7519 21.5391 17.0866 20.634 17.423 19.8734C17.759 19.1137 18.0752 18.3337 18.4696 17.6011C18.5585 17.4361 18.8624 18.0054 18.8759 18.09C18.9497 18.5554 18.2521 18.9917 17.9486 19.2193C16.7645 20.1073 15.8156 21.1203 15.4491 22.5863C15.248 23.3907 15.3372 24.201 15.2632 25.0147C15.2486 25.1757 15.178 25.4226 15.0337 25.5104C14.8621 25.6149 14.3634 25.6205 14.1913 25.5059C13.9652 25.3551 13.8074 25.0725 13.629 24.8724C13.3091 24.5132 12.938 24.2243 12.5801 23.9061C12.2921 23.6501 11.9882 23.4531 11.6483 23.2749C11.2469 23.0645 10.8747 22.7823 10.4915 22.5404C9.79425 22.1004 9.22008 21.4384 8.49004 21.0531C8.13957 20.8682 7.97512 20.5795 7.70508 20.3095" stroke="#FFCB69" stroke-width="3" stroke-linecap="round"/>
<path d="M26.2866 2.54347C26.1251 2.49336 25.9609 2.4681 25.7934 2.45031C25.6864 2.43895 25.583 2.43575 25.4755 2.43496C25.351 2.43405 25.2282 2.41523 25.1034 2.41523C24.8767 2.41523 24.65 2.41523 24.4233 2.41523C24.3738 2.41523 24.2338 2.39643 24.1953 2.43496" stroke="#FFCB69" stroke-width="3" stroke-linecap="round"/>
</svg>
