<svg width="35" height="31" viewBox="0 0 35 31" fill="none" xmlns="http://www.w3.org/2000/svg">
<path d="M17.5 4.9376L16.6225 5.7826C16.7362 5.90055 16.8725 5.99437 17.0233 6.05846C17.174 6.12254 17.3362 6.15557 17.5 6.15557C17.6638 6.15557 17.826 6.12254 17.9767 6.05846C18.1275 5.99437 18.2638 5.90055 18.3775 5.7826L17.5 4.9376ZM13.3172 25.7733C10.8537 23.8315 8.16113 21.9351 6.02425 19.5301C3.93125 17.1706 2.46875 14.4178 2.46875 10.8477H0.03125C0.03125 15.18 1.835 18.4852 4.20262 21.1486C6.52637 23.7648 9.49037 25.8611 11.8076 27.6876L13.3189 25.7733H13.3172ZM2.46875 10.8477C2.46875 7.35397 4.44313 4.42247 7.139 3.1891C9.7585 1.99147 13.2782 2.30835 16.6225 5.7826L18.3775 4.09422C14.4125 -0.0284004 9.804 -0.709275 6.125 0.9726C2.52725 2.61872 0.03125 6.44072 0.03125 10.8477H2.46875ZM11.8076 27.6876C12.6412 28.3441 13.535 29.0429 14.4401 29.5726C15.3452 30.1007 16.3788 30.5314 17.5 30.5314V28.0939C16.9962 28.0939 16.4047 27.8988 15.6702 27.4682C14.9341 27.0392 14.172 26.4477 13.3172 25.7733L11.8076 27.6876ZM23.1924 27.6876C25.5096 25.8595 28.4736 23.7665 30.7974 21.1486C33.165 18.4836 34.9688 15.18 34.9688 10.8477H32.5312C32.5312 14.4178 31.0688 17.1706 28.9758 19.5301C26.8389 21.9351 24.1463 23.8315 21.6828 25.7733L23.1924 27.6876ZM34.9688 10.8477C34.9688 6.44072 32.4744 2.61872 28.875 0.9726C25.196 -0.709275 20.5907 -0.0284004 16.6225 4.0926L18.3775 5.7826C21.7218 2.30997 25.2415 1.99147 27.861 3.1891C30.5569 4.42247 32.5312 7.35235 32.5312 10.8477H34.9688ZM21.6828 25.7733C20.828 26.4477 20.0659 27.0392 19.3298 27.4682C18.5953 27.8972 18.0038 28.0939 17.5 28.0939V30.5314C18.6212 30.5314 19.6548 30.1007 20.5599 29.5726C21.4666 29.0429 22.3588 28.3441 23.1924 27.6876L21.6828 25.7733Z" fill="white"/>
<path d="M27.579 16.0967C29.3137 15.2071 30.8523 13.2864 30.4668 11.3381C30.2464 10.2245 29.9301 9.16906 29.5836 8.08872C29.2802 7.14306 29.0771 5.96546 28.4046 5.1751C27.3409 3.92499 25.2615 4.13891 23.7618 4.13891C23.1064 4.13891 22.3719 4.19012 21.7725 4.46385C21.0402 4.79826 20.7754 5.49405 20.3171 6.05966C19.7556 6.75249 19.0653 7.22702 18.1089 7.32692C17.6045 7.37962 17.0942 7.44346 16.5882 7.33775C15.6423 7.14013 14.6378 7.23277 13.685 6.98393C12.9 6.77892 12.2082 6.31605 11.6842 5.73111C11.3618 5.37114 11.2006 4.97824 10.7472 4.78879C10.2696 4.58922 9.48377 4.59202 8.98454 4.70936C8.55066 4.81134 8.12295 5.14832 7.68654 5.17871C7.2118 5.21178 6.85877 5.59622 6.42311 5.69862C6.30351 5.72673 5.80531 5.84427 5.7357 5.92607C5.66242 6.01219 5.2928 6.21521 5.18655 6.24018C5.02002 6.27932 5.42552 5.6653 5.49761 5.59752C5.62462 5.47812 5.76312 5.1939 5.91236 5.11373C6.13647 4.99332 6.07069 4.91876 6.38854 4.91876C6.68936 4.91876 6.99018 4.91876 7.291 4.91876C8.49186 4.91876 9.82276 5.04029 10.9738 5.38812C11.3424 5.49951 11.7005 5.69862 12.0951 5.69862C12.3088 5.69862 12.3898 5.67031 12.5099 5.84303C12.6497 6.04406 12.851 6.28502 12.9208 6.51457C13.0055 6.79337 13.0313 7.18013 13.3739 7.32331C13.6185 7.4255 13.8437 7.58351 14.0997 7.67714C14.526 7.83299 15.0633 7.87619 15.5129 7.92264C17.4217 8.11984 19.3118 7.97319 21.2195 7.97319C22.2871 7.97319 23.2734 7.51828 24.334 7.51828C25.3585 7.51828 25.7817 8.80856 25.7817 9.62677C25.7817 10.2321 25.8919 10.8346 25.847 11.4464C25.8108 11.9395 25.724 12.4318 25.7126 12.9267C25.6961 13.6397 25.5237 15.0599 24.6911 15.3674C24.3516 15.4928 23.9773 13.3837 23.9 13.1145C23.6907 12.3855 23.5108 11.6562 23.2625 10.9374C23.1091 10.4931 23.0143 9.95998 22.6711 9.6015C21.9549 8.85325 20.3615 8.72154 19.3839 8.69528C17.9193 8.65594 16.4624 8.7638 15.0214 9.013C14.1058 9.17134 13.1317 9.44605 12.46 10.0889C11.3362 11.1642 11.1002 12.4269 11.1312 13.8871C11.1549 14.9982 11.3656 15.9116 12.5252 16.4072C13.942 17.0126 15.7607 16.4541 17.0106 15.7573C18.6635 14.8359 19.6286 13.2075 19.8063 11.432C19.8532 10.9636 19.8177 10.2396 19.4031 9.90116C18.816 9.42181 17.8086 9.24133 17.0721 9.1863C15.4717 9.06673 13.619 9.41884 12.1643 10.042C11.3065 10.4094 9.81798 11.2562 10.2825 12.3635C10.8392 13.6903 12.814 13.9456 14.0921 13.9918C16.5698 14.0814 19.1794 13.9079 21.5344 13.1361C22.0097 12.9804 22.9476 12.7459 22.9476 12.136C22.9476 11.8189 22.4617 11.6913 22.2026 11.6125C20.6311 11.1348 18.8551 10.9668 17.2142 10.9915C15.5706 11.0162 13.7137 11.2815 12.5329 12.4718C11.7726 13.2382 11.4821 14.4935 11.5921 15.5154C11.6928 16.4518 12.5241 16.7734 13.4431 16.7177C14.8217 16.634 16.4595 16.0317 17.6097 15.324C18.4131 14.8297 19.1775 14.1386 19.3724 13.2228C19.4312 12.946 19.5083 12.5136 19.1381 12.4068C18.0232 12.0852 16.6474 12.4343 15.6243 12.8473C14.1036 13.4611 12.569 14.6444 12.0337 16.1689C11.6171 17.3553 11.7631 18.6724 12.8017 19.5302C14.3949 20.8461 16.6679 20.9002 18.6696 20.848C20.3058 20.8053 21.9842 20.6476 23.5621 20.2198C24.6535 19.9239 25.9652 19.471 26.6496 18.5518C27.2995 17.6789 27.081 16.4816 26.4269 15.6851C25.8458 14.9776 25.1489 14.6562 24.2379 14.4575C21.6522 13.8937 18.4111 14.0823 16.7034 16.2916C16.1873 16.9593 16.2591 18.2258 17.3947 17.808C18.1727 17.5218 18.9354 17.0541 19.6028 16.5877C20.0373 16.2841 20.3317 15.9048 20.3862 15.3926C20.455 14.7456 19.4508 15.5436 19.3225 15.7176C18.9445 16.2299 18.6759 16.9622 18.8463 17.5914C19.0113 18.2011 19.7885 18.1421 20.3132 18.0932C21.4161 17.9906 22.4869 17.5092 23.3393 16.8549C23.394 16.8129 24.1206 16.2397 23.9615 16.0714C23.7498 15.8475 22.6969 16.1604 22.4638 16.2555C21.8667 16.4992 21.3249 17.019 21.2349 17.6419C21.1544 18.199 21.456 18.4055 21.7034 18.8912C21.9067 19.2903 21.7183 19.7174 22.2718 19.6566C22.4235 19.6399 22.9142 19.4364 23.0436 19.4905C23.2301 19.5684 22.8623 20.2354 22.8247 20.3209C22.6291 20.7658 22.4528 21.241 22.0836 21.5881C21.5562 22.084 21.3951 22.8383 20.6627 23.0793C19.8331 23.3522 19.0428 23.5823 18.3854 24.1841C17.8027 24.7175 17.4484 25.4587 16.5575 25.195C15.752 24.9566 14.9502 24.7017 14.1305 24.509C13.5674 24.3767 13.137 24.1257 12.6481 23.8302C10.8199 22.7252 9.81777 20.7956 8.08977 19.5771C7.24628 18.9824 6.61627 18.1311 6.07749 17.2953C5.55058 16.478 4.90972 15.6303 4.56059 14.7319C4.33756 14.1581 3.94342 13.6346 3.71574 13.0567C3.43934 12.3551 3.24207 11.6497 3.00914 10.9301C2.90005 10.5932 2.90161 10.1149 2.90161 9.76036C2.90161 9.21695 3.04809 8.78883 3.42004 8.36312C4.24799 7.4155 5.489 6.60845 6.85705 6.60845C7.16607 6.60845 7.49071 6.63373 7.72495 6.85396C8.04557 7.1554 7.69259 7.73765 7.47917 7.97319C7.05513 8.44119 6.45964 8.5221 5.95844 8.88302C5.25939 9.38642 5.1597 10.3067 5.32864 11.0782C5.64202 12.5092 6.52352 13.7998 6.90698 15.2193C7.1277 16.0364 7.13518 17.0635 7.56366 17.8116C7.68781 18.0284 7.83468 17.69 7.90928 17.5697C8.2806 16.9713 8.57607 16.3736 8.81941 15.7212C9.38104 14.2153 9.57869 12.7621 9.77563 11.1937C9.84413 10.6482 9.93038 10.144 9.81019 9.59789C9.71426 9.16197 9.63312 8.72383 9.69115 8.27647C9.732 7.96147 10.3315 7.34143 9.99836 7.15001C9.25557 6.72325 8.34291 6.39532 7.52525 6.10298C7.05749 5.93575 6.68841 5.82859 6.19269 5.82859C5.69647 5.82859 5.50102 6.10718 5.07902 6.28351C4.91229 6.35318 4.77735 6.34849 4.59516 6.34849C4.32266 6.34849 4.42234 6.67045 4.42234 6.8684" stroke="white" stroke-width="3" stroke-linecap="round"/>
<path d="M15.0568 27.1274C15.2754 27.1274 15.5909 27.295 15.7952 27.3811C15.9301 27.4378 16.1533 27.396 16.2988 27.396C16.4508 27.396 16.6657 27.2927 16.8023 27.2244C17.0635 27.0938 17.3468 27.0348 17.6079 26.9111C18.5588 26.4607 19.6864 26.1902 20.4611 25.4155C20.7534 25.1233 21.0429 24.8015 21.3674 24.5465C21.5832 24.377 21.7373 24.1265 21.9567 23.9721C22.5707 23.5401 23.1763 23.1021 23.7843 22.663C24.5241 22.1287 25.2743 21.5738 25.9326 20.951C26.5447 20.372 27.0865 19.73 27.6781 19.1384C28.4874 18.3291 29.4908 17.429 29.4908 16.1844C29.4908 15.559 29.1619 15.1953 28.6068 14.9014C25.821 13.4266 22.9962 12.0661 20.3269 10.3773C19.1018 9.60222 17.9708 8.84019 16.8545 7.92685C16.265 7.44452 15.6069 6.89103 14.9523 6.51701C14.7377 6.39439 14.6419 6.079 14.419 5.97993C14.1913 5.87875 13.9766 5.67853 13.7439 5.5622C13.5954 5.48794 13.4369 5.36513 13.2814 5.30858C13.1364 5.25584 12.8985 5.19009 12.7742 5.10718" stroke="white" stroke-width="3" stroke-linecap="round"/>
<path d="M20.0585 4.65061C20.704 4.97817 21.2394 5.32251 21.9529 5.45769C22.7492 5.60857 23.5556 5.7398 24.3461 5.91728C25.0645 6.07855 25.7738 6.28436 26.4927 6.44412C26.6968 6.48947 27.0184 6.62196 27.1149 6.83085C27.836 8.39325 27.5811 10.0822 27.4175 11.7182C27.3597 12.2967 27.3222 12.8412 27.3222 13.4276C27.3222 13.5571 27.2631 13.883 27.3839 13.9769C27.8923 14.3723 29.3534 13.7953 29.8332 13.5958C30.2547 13.4205 30.8758 13.1692 31.0326 12.699C31.2905 11.9252 31.3698 11.0122 31.2343 10.1993C31.0867 9.31362 30.7274 8.45484 30.5506 7.57067C30.455 7.09308 30.1418 5.81184 29.6986 5.55858C29.6018 5.50323 29.6426 5.61442 29.6538 5.7099C29.7479 6.50975 29.9689 7.30262 30.1246 8.09191C30.3367 9.1671 30.5593 10.2084 30.7019 11.2922C30.807 12.0911 30.8756 13.0827 30.7019 13.8816C30.5573 14.5466 30.1726 15.0667 29.9452 15.6919C29.8731 15.8902 29.6999 16.0226 29.6202 16.23C29.4567 16.655 29.7643 15.0285 29.7883 14.8736C30.3272 11.3951 30.5117 7.81875 29.5361 4.404C29.5015 4.28276 29.1294 5.12198 29.0877 5.19987C28.811 5.71727 28.5495 6.24091 28.2526 6.74678C27.5128 8.00717 26.8661 9.24306 25.809 10.3002C25.0375 11.0716 24.0747 11.4136 23.1075 11.8639C22.0567 12.353 21.198 13.0856 20.3051 13.8087C19.5199 14.4447 18.7174 15.3068 18.4051 16.2916C18.1598 17.0654 18.4662 17.2075 19.2851 17.3397C21.1565 17.6419 23.1976 17.4441 25.0579 17.1604C25.7628 17.0528 26.4554 16.9056 27.1317 16.6784C27.2895 16.6253 27.708 16.5521 27.8267 16.4037C28.3759 15.7171 26.1726 15.7254 25.7753 15.7592C24.9608 15.8285 24.0921 16.1996 23.298 16.3981C21.8931 16.7494 20.4804 17.1848 19.0272 17.2612C18.2097 17.3043 17.3674 17.4933 16.55 17.463C16.3661 17.4562 16.1011 17.2698 15.9166 17.2052C15.2345 16.9664 14.4601 16.814 13.8036 16.5326C13.475 16.3918 13.0958 16.1906 12.8957 16.5775C12.5539 17.2382 13.6703 18.0987 14.1287 18.4719C15.1443 19.2985 15.9151 20.3646 16.8302 21.2966C17.1674 21.6401 17.4285 21.8863 17.6149 22.3055C17.936 23.0282 16.1146 21.955 16.0455 21.9244C14.971 21.4488 13.7966 21.0183 12.8172 20.3887C11.734 19.6923 10.502 19.252 9.81868 18.1132C9.40529 17.4242 9.2856 16.5195 9.10688 15.7536C8.90823 14.9022 8.51865 14.0953 8.21012 13.2819C7.65001 11.8052 6.91422 10.2234 7.97472 8.73085C8.83999 7.51307 10.1385 7.5055 11.4833 7.57628C12.0593 7.60659 13.8246 7.96107 14.011 7.12229C14.0838 6.79475 14.4565 6.44779 14.4033 6.10223C14.3324 5.64107 14.0679 5.22818 13.9998 4.7515C13.9003 4.0549 12.9976 3.65571 12.3352 3.53527C11.9466 3.46461 11.591 3.21171 11.2311 3.13173C10.8959 3.05724 10.5595 2.9923 10.2166 2.92996C9.31883 2.76673 8.7395 2.93497 7.90746 3.3391C7.61041 3.48339 7.15495 3.82515 6.84257 3.84353C5.41337 3.9276 9.71549 3.7868 11.1358 3.96683C11.7422 4.0437 12.3232 4.3352 12.9293 4.44884C13.3042 4.51914 13.7105 4.54289 14.0615 4.70666C14.8042 5.05326 15.5997 5.33149 16.3706 5.60902C17.6907 6.08426 18.5492 7.27549 19.1057 8.54029C19.2167 8.79248 19.709 10.2213 19.6662 10.1881C18.5123 9.29385 17.659 8.02826 16.5387 7.08306C15.6313 6.31739 14.7715 5.67916 13.7028 5.15504C12.1818 4.40919 11.539 5.36779 11.0797 6.84766C10.4521 8.87021 10.617 11.4934 12.1783 13.0689C13.3753 14.2769 14.787 15.0498 16.4603 15.3725C19.0209 15.8663 21.9618 15.8267 24.3405 14.6607C25.8045 13.943 25.809 12.5782 25.809 11.1297C25.809 10.4046 25.6573 9.71191 25.2261 9.11197C24.2108 7.6994 22.0478 6.99045 20.4172 7.5987C19.072 8.10049 17.6083 9.20316 16.8078 10.3955C16.4783 10.8862 16.0231 11.5967 16.0231 12.217" stroke="white" stroke-width="3" stroke-linecap="round"/>
<path d="M13.0661 21.7084C13.1658 21.7416 13.2275 22.0385 13.2772 22.1238C13.3984 22.3316 13.5409 22.4901 13.7179 22.6494C13.8034 22.7264 13.973 22.7979 14.0805 22.8422C14.331 22.9454 14.6693 22.9478 14.9344 22.9478C15.4947 22.9478 15.8227 22.6892 16.2059 22.2776C16.7834 21.6573 17.1181 20.7522 17.4545 19.9916C17.7905 19.2319 18.1067 18.4518 18.5011 17.7193C18.59 17.5542 18.8939 18.1236 18.9074 18.2082C18.9812 18.6736 18.2836 19.1098 17.9801 19.3374C16.796 20.2255 15.8471 21.2384 15.4806 22.7045C15.2795 23.5088 15.3687 24.3192 15.2947 25.1328C15.2801 25.2939 15.2095 25.5408 15.0652 25.6286C14.8936 25.7331 14.3948 25.7387 14.2228 25.624C13.9967 25.4732 13.8388 25.1907 13.6605 24.9905C13.3406 24.6314 12.9695 24.3424 12.6116 24.0243C12.3236 23.7683 12.0197 23.5713 11.6797 23.3931C11.2784 23.1827 10.9062 22.9005 10.523 22.6586C9.82574 22.2185 9.25158 21.5566 8.52154 21.1713C8.17106 20.9863 8.00662 20.6977 7.73657 20.4277" stroke="white" stroke-width="3" stroke-linecap="round"/>
<path d="M26.3179 2.66164C26.1564 2.61152 25.9921 2.58627 25.8246 2.56847C25.7177 2.55711 25.6143 2.55392 25.5068 2.55313C25.3822 2.55221 25.2595 2.5334 25.1347 2.5334C24.908 2.5334 24.6812 2.5334 24.4545 2.5334C24.405 2.5334 24.2651 2.51459 24.2266 2.55313" stroke="white" stroke-width="3" stroke-linecap="round"/>
</svg>
