<svg width="37" height="36" viewBox="0 0 37 36" fill="none" xmlns="http://www.w3.org/2000/svg">
<path d="M25.3676 27.3499C22.2782 29.6895 18.391 30.7925 14.4974 30.4344C10.6037 30.0763 6.99627 28.2841 4.40934 25.4226C1.82241 22.5611 0.450439 18.8453 0.572708 15.0316C0.694977 11.218 2.30229 7.59313 5.06747 4.89492C7.83314 2.19718 11.5486 0.629068 15.4576 0.509781C19.3666 0.390494 23.1753 1.729 26.1083 4.25283C29.0414 6.77667 30.8784 10.2961 31.2454 14.0948C31.6125 17.8935 30.4819 21.6858 28.0838 24.6999L35.8738 32.2999C36.1268 32.5291 36.3118 32.8206 36.4092 33.1437C36.5066 33.4668 36.5129 33.8096 36.4274 34.1359C36.3418 34.4622 36.1677 34.76 35.9233 34.9979C35.6788 35.2357 35.3732 35.4048 35.0385 35.4874C34.7044 35.571 34.3534 35.5651 34.0224 35.4705C33.6914 35.376 33.3927 35.1961 33.1576 34.9499L25.3676 27.3499ZM27.4689 15.4999C27.4916 14.0089 27.2103 12.5284 26.6412 11.1445C26.0721 9.76052 25.2267 8.50079 24.154 7.43856C23.0813 6.37632 21.8028 5.53279 20.3929 4.95702C18.9831 4.38125 17.4699 4.08474 15.9414 4.08474C14.413 4.08474 12.8998 4.38125 11.4899 4.95702C10.08 5.53279 8.80157 6.37632 7.72889 7.43856C6.65621 8.50079 5.81074 9.76052 5.24166 11.1445C4.67258 12.5284 4.39125 14.0089 4.41404 15.4999C4.45918 18.4536 5.69353 21.2713 7.85042 23.3445C10.0073 25.4176 12.9136 26.5797 15.9414 26.5797C18.9693 26.5797 21.8756 25.4176 24.0325 23.3445C26.1894 21.2713 27.4237 18.4536 27.4689 15.4999Z" fill="white"/>
</svg>
