<svg width="37" height="40" viewBox="0 0 37 40" fill="none" xmlns="http://www.w3.org/2000/svg">
<path d="M24.7094 35.7895C24.7098 36.8517 24.3153 37.8749 23.6052 38.6538C22.8951 39.4327 21.9218 39.9098 20.8804 39.9895L20.5699 40H16.4304C15.3861 40.0003 14.3802 39.5991 13.6144 38.8769C12.8486 38.1546 12.3796 37.1645 12.3012 36.1053L12.2909 35.7895H24.7094ZM18.5002 2.00856e-09C22.2567 -6.30422e-05 25.8665 1.48399 28.5679 4.1391C31.2694 6.79422 32.8514 10.4128 32.9802 14.2316L32.9885 14.7368V22.6611L36.7596 30.3326C36.9241 30.6674 37.0065 31.0377 36.9996 31.4119C36.9927 31.7861 36.8967 32.153 36.7199 32.4812C36.5431 32.8094 36.2907 33.0892 35.9844 33.2965C35.6781 33.5038 35.3269 33.6325 34.9609 33.6716L34.7229 33.6842H2.27741C1.90933 33.6843 1.54671 33.5937 1.22063 33.42C0.89455 33.2463 0.614726 32.9948 0.405139 32.6871C0.195551 32.3793 0.0624497 32.0244 0.0172398 31.6529C-0.0279702 31.2813 0.0160596 30.9041 0.145556 30.5537L0.240765 30.3326L4.01186 22.6611V14.7368C4.01186 10.8284 5.5383 7.08002 8.25539 4.31632C10.9725 1.55263 14.6576 2.00857e-09 18.5002 2.00856e-09Z" fill="#FFCB69"/>
</svg>
