<svg width="41" height="41" viewBox="0 0 41 41" fill="none" xmlns="http://www.w3.org/2000/svg">
<path d="M20.5 0C9.184 0 0 9.184 0 20.5C0 31.816 9.184 41 20.5 41C31.816 41 41 31.816 41 20.5C41 9.184 31.816 0 20.5 0ZM20.5 8.2C24.4565 8.2 27.675 11.4185 27.675 15.375C27.675 19.3315 24.4565 22.55 20.5 22.55C16.5435 22.55 13.325 19.3315 13.325 15.375C13.325 11.4185 16.5435 8.2 20.5 8.2ZM20.5 36.9C16.3385 36.9 11.4185 35.219 7.913 30.996C11.3775 28.29 15.744 26.65 20.5 26.65C25.256 26.65 29.6225 28.29 33.087 30.996C29.5815 35.219 24.6615 36.9 20.5 36.9Z" fill="#FFCB69"/>
</svg>
